# xmcd
#
# Track frame offsets: 
#        150
#        41213
#        74728
#        114177
#        153138
#        185294
#
# Disc length: 2948 seconds
#
# Revision: 0
# Processed by: cddbd v1.5.2PL0 Copyright (c) Steve Scherf et al.
# Submitted via: ExactAudioCopy v0.99pb4
#
DISCID=4a0b8206
DTITLE=Bill Coleman - UK Live:Satin Doll 1967,Vol.1
DYEAR=1967
DGENRE=Jazz
TTITLE0=Three Little Words
TTITLE1=Satin Doll
TTITLE2=Sweets
TTITLE3=I'm Growing Fonder Of You - Dream Man
TTITLE4=Spain
TTITLE5=Telegraph
EXTD=
EXTT0=
EXTT1=
EXTT2=
EXTT3=
EXTT4=
EXTT5=
PLAYORDER=
